HIERARCHY
ROOT Hips
{
	OFFSET -0.001795 -0.223333 0.028219
	CHANNELS 6 Xposition Yposition Zposition Zrotation Yrotation Xrotation 
	JOINT LeftUpLeg
	{
		OFFSET 0.069520 -0.091406 -0.006815
		CHANNELS 3 Zrotation Yrotation Xrotation
		JOINT LeftLeg
		{
			OFFSET 0.034277 -0.375199 -0.004496
			CHANNELS 3 Zrotation Yrotation Xrotation
			JOINT LeftFoot
			{
				OFFSET -0.013596 -0.397961 -0.043693
				CHANNELS 3 Zrotation Yrotation Xrotation
				JOINT LeftToe
				{
					OFFSET 0.026358 -0.055791 0.119288
					CHANNELS 3 Zrotation Yrotation Xrotation
					End Site
					{
						OFFSET 0.000000 0.000000 0.000000
					}
				}
			}
		}
	}
	JOINT RightUpLeg
	{
		OFFSET -0.067670 -0.090522 -0.004320
		CHANNELS 3 Zrotation Yrotation Xrotation
		JOINT RightLeg
		{
			OFFSET -0.038290 -0.382569 -0.008850
			CHANNELS 3 Zrotation Yrotation Xrotation
			JOINT RightFoot
			{
				OFFSET 0.015774 -0.398415 -0.042312
				CHANNELS 3 Zrotation Yrotation Xrotation
				JOINT RightToe
				{
					OFFSET -0.025372 -0.048144 0.123348
					CHANNELS 3 Zrotation Yrotation Xrotation
					End Site
					{
						OFFSET 0.000000 0.000000 0.000000
					}
				}
			}
		}
	}
	JOINT Spine
	{
		OFFSET -0.002533 0.108963 -0.026696
		CHANNELS 3 Zrotation Yrotation Xrotation
		JOINT Spine1
		{
			OFFSET 0.005487 0.135180 0.001092
			CHANNELS 3 Zrotation Yrotation Xrotation
			JOINT Spine2
			{
				OFFSET 0.001457 0.052922 0.025425
				CHANNELS 3 Zrotation Yrotation Xrotation
				JOINT Neck
				{
					OFFSET -0.002778 0.213870 -0.042857
					CHANNELS 3 Zrotation Yrotation Xrotation
					JOINT Head
					{
						OFFSET 0.005152 0.064970 0.051349
						CHANNELS 3 Zrotation Yrotation Xrotation
						End Site
						{
							OFFSET 0.000000 0.000000 0.000000
						}
					}
				}
				JOINT LeftShoulder
				{
					OFFSET 0.078845 0.121749 -0.034090
					CHANNELS 3 Zrotation Yrotation Xrotation
					JOINT LeftArm
					{
						OFFSET 0.090977 0.030469 -0.008868
						CHANNELS 3 Zrotation Yrotation Xrotation
						JOINT LeftForeArm
						{
							OFFSET 0.259612 -0.012772 -0.027456
							CHANNELS 3 Zrotation Yrotation Xrotation
							JOINT LeftHand
							{
								OFFSET 0.249234 0.008986 -0.001171
								CHANNELS 3 Zrotation Yrotation Xrotation
								End Site
								{
									OFFSET 0.000000 0.000000 0.000000
								}
							}
						}
					}
				}
				JOINT RightShoulder
				{
					OFFSET -0.081759 0.118833 -0.038615
					CHANNELS 3 Zrotation Yrotation Xrotation
					JOINT RightArm
					{
						OFFSET -0.096012 0.032551 -0.009143
						CHANNELS 3 Zrotation Yrotation Xrotation
						JOINT RightForeArm
						{
							OFFSET -0.253742 -0.013329 -0.021401
							CHANNELS 3 Zrotation Yrotation Xrotation
							JOINT RightHand
							{
								OFFSET -0.255298 0.007772 -0.005559
								CHANNELS 3 Zrotation Yrotation Xrotation
								End Site
								{
									OFFSET 0.000000 0.000000 0.000000
								}
							}
						}
					}
				}
			}
		}
	}
}
MOTION
Frames: 5
Frame Time: 0.050000
0.000000 0.933535 0.000000 -2.298320 6.585604 -3.267665 -0.139992 0.282841 3.384576 -1.605086 -0.647664 20.671682 42.030510 54.103081 22.002006 0.000000 0.000000 0.000000 -9.058516 0.117779 -26.634651 3.446137 -0.833488 30.224142 -4.567271 -13.175470 16.550075 0.000000 0.000000 0.000000 10.519176 -4.629491 29.192517 -6.982660 2.449875 -24.411646 -0.831467 8.216809 28.009012 12.263476 -5.684327 -18.340448 0.000000 0.000000 0.000000 -24.018007 -10.145525 0.585748 -43.373243 -8.994149 -3.207963 -8.326654 -37.520763 3.679340 0.000000 0.000000 0.000000 25.044795 -2.248782 1.129213 52.785229 9.541929 -4.650783 30.113951 44.226981 17.009270 0.000000 0.000000 0.000000 
0.021461 0.938097 -0.031869 -3.089010 5.023196 -1.947641 0.126128 0.145608 1.776777 -4.406464 0.282299 18.585379 42.508580 56.090490 19.586427 0.000000 0.000000 0.000000 -7.679066 0.641844 -31.214199 5.311735 -1.912427 41.388221 -4.121081 -12.363073 13.416397 0.000000 0.000000 0.000000 9.902890 -4.656553 30.908346 -5.646232 2.050276 -25.304964 1.404425 13.257891 27.649078 12.035587 -5.053578 -17.090594 0.000000 0.000000 0.000000 -23.343929 -11.037087 -0.321660 -44.343368 -8.665250 -2.875698 -9.143242 -35.923817 3.362995 0.000000 0.000000 0.000000 26.559161 -3.520056 1.643449 48.339251 9.837923 -4.767136 37.978688 48.324869 23.455230 0.000000 0.000000 0.000000 
0.042709 0.939850 -0.061529 -2.679189 4.945166 -2.696236 -1.113828 0.226036 2.236430 -4.350325 0.314280 16.140983 41.576662 56.066494 17.890118 0.000000 0.000000 0.000000 -6.083288 1.116679 -33.322308 3.758354 -1.449544 51.413178 -3.179325 -10.528112 12.087948 0.000000 0.000000 0.000000 11.317779 -5.387046 32.812743 -7.312423 2.641608 -21.733904 -0.166388 11.014495 25.700798 10.835043 -5.143925 -14.777807 0.000000 0.000000 0.000000 -23.347881 -10.381248 0.183922 -43.562402 -8.856230 -2.946477 -6.409735 -36.344176 2.741800 0.000000 0.000000 0.000000 24.588584 -0.348836 2.700062 48.003317 12.529015 -3.347472 33.858365 53.235350 23.259449 0.000000 0.000000 0.000000 
0.063078 0.937861 -0.088093 -2.221228 5.745296 -3.160737 -2.898431 0.301182 2.422079 -4.281134 0.270568 15.743900 38.214657 55.483464 12.144946 0.000000 0.000000 0.000000 -5.277839 1.308022 -36.529194 4.022256 -2.276533 60.624730 -2.676247 -9.340143 10.656859 0.000000 0.000000 0.000000 11.434116 -6.305629 36.889922 -9.393889 2.908742 -26.048543 2.369352 10.472783 29.424459 10.648515 -4.457622 -17.554514 0.000000 0.000000 0.000000 -25.055321 -11.415203 0.769405 -43.049432 -9.060622 -3.107672 -3.554614 -37.448173 2.003738 0.000000 0.000000 0.000000 25.062543 -0.804435 2.561958 44.909087 13.998132 -3.303143 35.977089 57.433781 26.850829 0.000000 0.000000 0.000000 
0.083731 0.935475 -0.111833 -2.219763 6.858154 -2.929179 -4.212606 0.294232 1.973111 -4.239843 0.251944 14.000104 36.221351 55.078592 8.235850 0.000000 0.000000 0.000000 -3.934563 1.650161 -39.846537 4.415012 -3.223250 64.805522 -3.970006 -11.664055 9.963681 0.000000 0.000000 0.000000 11.458626 -7.092507 39.720955 -8.568568 2.793273 -25.562366 1.804279 10.093960 27.912061 11.163898 -4.485928 -18.986759 0.000000 0.000000 0.000000 -24.196373 -11.865216 1.138745 -44.024597 -7.821752 -3.556539 -2.032929 -40.120317 1.550294 0.000000 0.000000 0.000000 25.576017 0.315130 3.203606 42.382528 15.560351 -2.647749 29.920943 60.115951 23.975782 0.000000 0.000000 0.000000 
